HIERARCHY
ROOT Hips
{
  OFFSET 13.6774 106.653 -34.4427
  CHANNELS 6 Xposition Yposition Zposition Zrotation Xrotation Yrotation
  JOINT ToSpine
  {
    OFFSET -2.69724 7.43032 -0.144315
    CHANNELS 3 Zrotation Xrotation Yrotation
    JOINT Spine
    {
      OFFSET -0.0310711 10.7595 1.96963
      CHANNELS 3 Zrotation Xrotation Yrotation
      JOINT Spine1
      {
        OFFSET 19.9056 3.91189 0.764692
        CHANNELS 3 Zrotation Xrotation Yrotation
        JOINT Neck
        {
          OFFSET 25.9749 7.03908 -0.130764
          CHANNELS 3 Zrotation Xrotation Yrotation
          JOINT Head
          {
            OFFSET 9.52751 0.295786 -0.907742
            CHANNELS 3 Zrotation Xrotation Yrotation
            End Site
            {
              OFFSET 16.4037 0.713936 2.7358
            }
          }
        }
        JOINT LeftShoulder
        {
          OFFSET 17.7449 4.33886 11.7777
          CHANNELS 3 Zrotation Xrotation Yrotation
          JOINT LeftArm
          {
            OFFSET 0.911315 1.27913 9.80584
            CHANNELS 3 Zrotation Xrotation Yrotation
            JOINT LeftForeArm
            {
              OFFSET 28.6126 1.18197 -3.53199
              CHANNELS 3 Zrotation Xrotation Yrotation
              JOINT LeftHand
              {
                OFFSET 27.5088 0.0218783 0.327423
                CHANNELS 3 Zrotation Xrotation Yrotation
                End Site
                {
                  OFFSET 18.6038 -0.000155887 0.382096
                }
              }
            }
          }
        }
        JOINT RightShoulder
        {
          OFFSET 17.1009 2.89543 -12.2328
          CHANNELS 3 Zrotation Xrotation Yrotation
          JOINT RightArm
          {
            OFFSET 1.4228 0.178766 -10.211
            CHANNELS 3 Zrotation Xrotation Yrotation
            JOINT RightForeArm
            {
              OFFSET 28.733 1.87905 2.64907
              CHANNELS 3 Zrotation Xrotation Yrotation
              JOINT RightHand
              {
                OFFSET 27.4588 0.290562 -0.101845
                CHANNELS 3 Zrotation Xrotation Yrotation
                End Site
                {
                  OFFSET 17.8396 -0.255518 -0.000602873
                }
              }
            }
          }
        }
      }
    }
  }
  JOINT LeftUpLeg
  {
    OFFSET -5.61296 -2.22332 -10.2353
    CHANNELS 3 Zrotation Xrotation Yrotation
    JOINT LeftLeg
    {
      OFFSET 2.56703 -44.7417 -7.93097
      CHANNELS 3 Zrotation Xrotation Yrotation
      JOINT LeftFoot
      {
        OFFSET 3.16933 -46.5642 -3.96578
        CHANNELS 3 Zrotation Xrotation Yrotation
        JOINT LeftToeBase
        {
          OFFSET 0.346054 -6.02161 12.8035
          CHANNELS 3 Zrotation Xrotation Yrotation
          End Site
          {
            OFFSET 0.134235 -1.35082 5.13018
          }
        }
      }
    }
  }
  JOINT RightUpLeg
  {
    OFFSET -5.7928 -1.72406 10.6446
    CHANNELS 3 Zrotation Xrotation Yrotation
    JOINT RightLeg
    {
      OFFSET -2.57161 -44.7178 -7.85259
      CHANNELS 3 Zrotation Xrotation Yrotation
      JOINT RightFoot
      {
        OFFSET -3.10148 -46.5936 -4.03391
        CHANNELS 3 Zrotation Xrotation Yrotation
        JOINT RightToeBase
        {
          OFFSET -0.0828122 -6.13587 12.8035
          CHANNELS 3 Zrotation Xrotation Yrotation
          End Site
          {
            OFFSET -0.131328 -1.35082 5.13018
          }
        }
      }
    }
  }
}
MOTION
Frames: 14
Frame Time: 0.03333333333333333
0.0000 93.1000 0.0000 0.3949 -74.6392 -92.7410 -70.9892 0.0900 87.9923 96.8063 70.7782 -10.6137 -0.8852 19.6918 4.4440 -156.1641 21.2894 -178.9967 -153.1824 60.0098 -177.5296 -0.5116 -16.4369 -35.9832 -79.8532 33.4620 -77.7600 6.5290 17.2202 -26.1238 0.0216 -0.1859 0.3503 -1.9588 5.5781 45.3950 -80.1560 -28.9190 83.1150 10.0164 -17.0615 33.8591 0.1215 0.2525 0.0683 -42.0628 18.8531 85.9412 -4.2398 51.4783 -6.5737 -3.1973 -13.2815 -1.4822 4.9397 -12.1139 6.5911 -40.9200 -19.4954 108.0426 2.7238 51.1347 5.0648 -1.2143 -10.9497 0.4799 2.9065 -26.0007 -13.5295 
0.0000 93.1000 0.0000 -4.0290 -75.2398 -98.2157 -70.9874 0.1303 87.9918 101.1558 70.0556 -13.8243 -1.6053 19.9182 3.7448 -156.0206 21.3806 -178.2297 -153.1326 59.7490 -176.5346 -1.0391 -15.9670 -36.1501 -83.2041 33.0601 -74.7976 6.8565 16.4115 -27.1710 -0.0112 0.0228 0.3085 -2.1728 6.0903 44.9882 -78.2175 -29.0977 85.2088 10.1039 -17.2159 33.8214 -0.0166 0.1408 -0.0525 -44.7018 20.1800 84.9351 -4.0563 48.3273 -8.2242 -5.0027 -9.7798 -0.7252 4.6760 -11.8439 6.7361 -37.9380 -19.4194 106.2882 3.8175 56.3618 5.9654 -2.1421 -15.0822 0.5617 2.0037 -24.8625 -15.0670 
0.0000 93.1000 0.0000 -9.0347 -75.3364 -104.0349 -70.9869 0.0492 87.9921 104.0921 69.9731 -15.8793 -1.8158 20.2678 3.4662 -156.2633 20.9754 -178.0394 -153.0965 59.2270 -176.8519 -1.0468 -15.5565 -35.9884 -86.7685 33.0633 -71.7902 7.6161 16.0811 -28.8073 -0.0079 -0.0259 0.4051 -2.1643 6.2832 44.9738 -75.8392 -27.8953 88.0549 9.4987 -16.0738 33.8294 -0.0204 0.1638 0.0743 -46.9464 21.7434 84.9301 -4.0604 45.5274 -7.0171 -5.8281 -5.4867 -0.1167 2.8987 -9.8758 7.3506 -35.9877 -17.4022 104.7523 6.0324 60.1291 5.8760 -2.8625 -17.8699 0.6297 1.8884 -21.3558 -14.9361 
0.0000 93.1000 0.0000 -11.1056 -74.4922 -105.9406 -70.9910 0.0895 87.9934 102.1266 69.9068 -14.9543 -2.0375 20.2672 3.3885 -155.3617 20.3868 -178.0200 -152.1635 58.8154 -177.1314 -1.2323 -15.2226 -35.9096 -89.1533 32.8641 -69.8534 9.1782 16.6078 -30.2539 0.1808 0.0760 0.2460 -2.2078 6.1843 44.9167 -72.8942 -28.3921 89.9054 9.1792 -15.2118 33.8347 0.0243 -0.0031 -0.0054 -46.9422 22.1131 83.0042 -3.0620 42.4127 -7.8251 -5.7659 0.5425 0.4156 1.8660 -8.9000 8.8148 -33.6684 -15.3575 105.5364 7.1696 63.1859 5.6771 -3.3774 -21.3277 0.7855 2.1516 -19.2825 -15.8218 
0.0000 93.1000 0.0000 -8.2186 -74.0865 -103.6711 -70.9914 0.3207 87.9924 100.1678 69.9848 -12.9040 -1.6616 19.7915 3.0494 -155.3864 19.9802 -177.8717 -151.3586 58.4572 -176.8831 -1.0240 -14.9095 -35.7860 -89.9354 32.9601 -68.7991 9.9839 17.2416 -31.3748 0.1615 0.1940 0.2376 -2.0810 6.1708 45.0350 -71.7346 -28.1623 90.6466 8.3494 -13.5432 33.6895 -0.0273 -0.1516 -0.0162 -45.9669 21.9803 80.9534 -3.3900 40.4013 -4.9355 -5.4249 6.5254 0.6369 0.1101 -4.2415 6.2158 -32.9455 -13.2006 105.2927 7.0998 64.0513 4.0097 -3.1248 -22.4565 0.8494 1.8562 -18.9170 -14.6215 
0.0000 93.1000 0.0000 -7.2969 -72.2423 -102.6194 -70.9931 0.2270 87.9952 98.0454 69.9946 -10.7432 -1.4702 19.4234 2.9464 -155.3428 20.0645 -177.9228 -151.4662 58.7053 -176.3951 -0.5558 -15.1626 -35.2032 -90.8977 32.3038 -68.7765 9.9780 16.8603 -32.2994 0.1911 0.0308 0.3750 -1.7451 5.9862 44.1754 -72.0774 -28.9358 90.8843 8.2377 -13.7906 33.8547 0.2281 0.0176 0.3385 -45.1699 21.0045 79.7856 -2.8109 38.2538 -3.5199 -5.9827 7.1791 0.6400 -1.8114 0.3335 5.7389 -31.9886 -11.5565 104.5505 7.0988 64.2711 4.1195 -3.1081 -23.1651 0.8644 1.9699 -17.5264 -14.6137 
0.0000 93.1000 0.0000 -7.0034 -71.7752 -103.5435 -70.9926 0.0080 87.9926 100.0012 70.2097 -11.9079 -2.0064 20.0653 2.1873 -156.3412 20.0767 -177.0085 -152.4415 58.9912 -174.9393 -0.4437 -15.4667 -36.2082 -91.3589 32.1317 -68.7125 11.0124 17.6257 -33.0787 -0.1887 -0.2316 0.6531 -1.7218 6.0116 44.1467 -71.1819 -28.3974 90.8411 8.0464 -13.1157 34.7109 0.5446 0.2874 0.7420 -45.7640 20.0737 81.0759 -2.6943 36.5911 -4.9796 -4.6046 3.5596 0.2733 -2.0510 0.0479 4.0431 -31.7312 -10.0013 104.5987 7.1083 64.3378 2.8547 -2.8971 -23.7284 0.5370 2.4523 -15.0244 -14.9607 
0.0000 93.1000 0.0000 -7.1190 -71.0955 -104.8401 -70.9943 -0.1235 87.9925 99.9945 70.2323 -12.8533 -2.2326 20.0878 2.1096 -156.4470 19.9599 -176.6716 -151.4685 58.8474 -175.7223 -1.0796 -15.8540 -35.9937 -91.9017 32.1870 -68.8973 12.0380 17.5819 -34.8420 -0.5317 -0.2058 0.5946 -2.0741 6.0337 43.6366 -69.8926 -27.8441 91.8321 8.2812 -12.3392 34.9255 0.5912 0.2384 0.6107 -44.7246 18.0400 83.2019 -3.1299 36.4053 -5.3316 -4.9827 0.2086 0.4553 -0.9964 -0.5640 4.6992 -31.6220 -7.8416 104.9116 6.1671 63.0327 2.9165 -2.7759 -23.9294 0.2869 1.8676 -11.7280 -14.8110 
0.0000 93.1000 0.0000 -6.0857 -70.1772 -104.6925 -70.9956 -0.2113 87.9941 98.9061 69.9052 -11.6259 -2.1609 19.7868 2.2333 -157.3969 19.7348 -176.6087 -151.3966 58.2147 -175.9286 -1.1196 -15.9897 -36.1380 -91.7871 32.0626 -68.8463 12.3072 16.8838 -36.2059 -0.5009 -0.2729 0.3948 -2.0739 6.1954 43.9718 -68.9284 -26.0657 91.7762 7.8658 -12.0419 33.8749 0.4583 0.2632 0.5469 -44.1144 16.1610 85.6152 -1.7888 36.1332 -3.9451 -3.4521 -2.8004 -0.0610 -0.1738 -3.4577 4.0499 -31.1274 -6.8604 104.2289 6.0001 61.0421 2.9914 -2.8024 -24.0822 0.4910 1.7293 -11.4407 -11.9014 
0.0000 93.1000 0.0000 -5.9440 -69.2965 -104.8579 -70.9940 0.0360 87.9950 99.8694 69.8429 -11.9658 -2.4123 19.9719 1.8248 -157.3710 19.8050 -176.8081 -151.3657 58.1047 -176.1913 -0.8024 -15.9959 -36.0991 -91.9166 32.0409 -69.8254 11.9315 16.2237 -37.5762 -0.4868 -0.0870 0.0682 -1.8294 6.1401 43.9482 -67.8107 -25.1149 91.8718 6.9366 -12.1175 33.0528 0.2178 0.1662 0.3047 -42.8020 14.0167 88.9048 -1.8211 36.2537 -4.0061 -3.5894 -4.8633 -0.5294 1.3646 -5.7701 4.5862 -32.1916 -5.9591 104.0607 4.9568 58.0329 4.0440 -1.8441 -22.8689 0.6203 1.8148 -8.6739 -14.7544 
0.0000 93.1000 0.0000 -5.0589 -69.1898 -103.8557 -70.9928 0.0206 87.9969 99.8831 70.0039 -11.9682 -2.1023 20.1222 1.9282 -157.3480 20.1640 -176.8882 -151.3159 58.8077 -175.2113 -0.1848 -16.0617 -36.3998 -91.2155 32.0216 -70.0052 12.2226 16.2151 -39.1989 -0.3576 -0.1808 -0.0707 -1.4575 6.1357 43.9617 -68.2085 -25.0676 91.6997 6.7565 -12.0284 31.9110 0.2389 0.2397 0.3854 -42.2819 11.9510 92.0787 -2.0883 37.2674 -1.9830 -1.3730 -5.9313 -1.3315 1.8840 -5.8709 3.5746 -33.6942 -5.0033 103.9947 3.7864 56.2155 4.0183 -2.2927 -22.1425 0.9405 1.7724 -7.0937 -12.8314 
0.0000 93.1000 0.0000 -3.8756 -68.8480 -101.8950 -70.9948 0.0215 87.9991 99.8354 70.3795 -12.0369 -2.2504 19.8889 1.9533 -157.4344 20.1061 -176.9323 -152.5438 58.9839 -176.1774 -0.5187 -16.0672 -36.5673 -91.7816 31.1523 -69.9098 12.9863 16.4219 -40.1634 -0.2628 -0.0904 -0.2672 -1.5614 5.9166 43.2887 -68.8341 -25.3060 90.9993 6.2785 -11.2119 31.7355 0.2892 0.1349 0.1516 -42.0050 9.2011 94.1350 -1.9872 38.2806 -1.7229 -0.3087 -7.3611 -1.3800 2.0945 -6.7879 3.5976 -34.9547 -3.9781 103.0034 3.0091 53.1442 3.1434 -3.0921 -20.9725 1.1038 1.5397 -7.0952 -10.6964 
0.0000 93.1000 0.0000 -1.8530 -69.2893 -99.9247 -70.9974 -0.0077 88.0011 99.8118 70.1053 -10.9497 -2.0936 19.3093 2.0362 -156.3702 19.9244 -177.1577 -152.5425 59.0247 -175.1454 -0.9899 -16.0048 -36.0834 -91.9762 31.2507 -69.8932 13.8511 16.8517 -41.2845 -0.0983 0.0216 -0.3302 -1.8422 5.9378 43.7630 -68.8986 -25.1776 90.7980 6.0441 -10.7754 30.6927 0.2429 0.0293 -0.1243 -41.9449 6.7590 94.8828 -2.9735 39.2604 -1.8773 0.1583 -9.1947 -1.3401 1.8670 -8.2909 4.9979 -36.7957 -2.8435 101.9857 3.1130 50.2034 2.1775 -2.5833 -19.0847 0.9790 0.5233 -5.9160 -10.1159 
0.0000 93.1000 0.0000 -1.0530 -70.0663 -99.0396 -70.9959 -0.3083 88.0055 97.9326 69.7874 -10.1208 -1.6236 19.0348 2.2945 -155.3427 19.7459 -178.3113 -151.6877 59.1788 -175.2480 -0.1352 -16.0228 -35.8218 -91.8101 31.2925 -69.8869 14.0252 16.2146 -42.2121 0.2106 -0.4341 -0.0659 -1.4560 5.9841 43.9898 -69.8168 -25.0330 89.8290 6.1237 -11.0519 29.9859 0.2564 0.5533 0.4813 -42.2372 4.6832 96.8638 -3.1492 40.0980 -2.9396 0.0922 -11.2420 -1.7823 2.4162 -8.7493 5.9073 -38.9102 -1.6804 101.9530 1.9223 47.1615 1.0030 -2.5243 -18.2583 0.9824 0.7943 -5.3048 -8.7022 
